<svg id="Layer_1" data-name="Layer 1" xmlns="http://www.w3.org/2000/svg" viewBox="0 0 512 512"><defs><style>.cls-1{fill:#fff;}.cls-2{fill:#cf0038;}</style></defs><title>Artboard 1</title><path class="cls-1" d="M512,256c0,141.39-114.62,256-256,256S0,397.39,0,256,114.62,0,256,0,512,114.62,512,256"/><path class="cls-2" d="M280.73,378.36,256.6,309.93H144.3l-24.13,68.43H54.37L171.94,71.29H231.6L348.29,378.36ZM215.81,195.87c-6.14-18-12.28-36.41-15.35-47.81-3.07,11.4-9.21,29.83-15.36,47.81l-19.74,55.72h70.2Z"/><path class="cls-2" d="M360.39,233.31a8.21,8.21,0,0,0,10.41,5.18l85.65-28.73a8.23,8.23,0,0,0,5.17-10.42l-7.12-21.22a8.23,8.23,0,0,0-10.41-5.18l-85.63,28.74a8.23,8.23,0,0,0-5.19,10.41Z"/><path class="cls-2" d="M365.07,300.56a8.21,8.21,0,0,0,5.18,10.4l61,21.67a8.23,8.23,0,0,0,10.4-5.19l7.11-21.22a8.23,8.23,0,0,0-5.19-10.42l-61-21.65a8.21,8.21,0,0,0-10.4,5.17Z"/><path class="cls-2" d="M381.86,104.73a8.22,8.22,0,0,1,1.46,11.53l-38.65,51.93a8.24,8.24,0,0,1-11.53,1.48L315.43,156A8.23,8.23,0,0,1,314,144.44l38.67-51.92A8.24,8.24,0,0,1,364.16,91Z"/></svg>